<?xml version="1.0" encoding="iso-8859-1"?>
<!-- Generator: Adobe Illustrator 16.0.0, SVG Export Plug-In . SVG Version: 6.00 Build 0)  -->
<!DOCTYPE svg PUBLIC "-//W3C//DTD SVG 1.1//EN" "http://www.w3.org/Graphics/SVG/1.1/DTD/svg11.dtd">
<svg version="1.1" id="Capa_1" xmlns="http://www.w3.org/2000/svg" xmlns:xlink="http://www.w3.org/1999/xlink" x="0px" y="0px"
	 width="320.966px" height="320.966px" viewBox="0 0 320.966 320.966" style="enable-background:new 0 0 320.966 320.966;"
	 xml:space="preserve">
<g>
	<g>
		<path d="M308.771,66.764c-1.905-3.019-0.114-12.855-3.682-13.013c-2.868-0.127-3.754,10.641-7.233,12.625
			C272.69,80.74,267.43,71.53,242.264,85.895c-17.104,9.756-20.163,17.143-28.262,25.37c3.324-12.072,1.646-19.925,11.857-37.821
			c14.364-25.166,23.576-19.91,37.94-45.076c1.988-3.479-7.048-9.147-7.183-12.016c-0.155-3.562,6.271-11.219,3.252-13.129
			c-2.423-1.533-8.533,7.381-12.541,7.381C218.693,10.604,218.693,0,190.048,0c-28.658,0-28.658,10.604-57.317,10.604
			C104.07,10.604,104.07,0,75.412,0c-4.008,0-4.448,10.654-6.876,12.192c-3.019,1.908-12.854,0.122-13.013,3.684
			c-0.127,2.869,10.641,3.754,12.625,7.231c14.354,25.15,5.145,30.406,19.498,55.559c10.985,19.255,18.965,20.738,28.537,31.625
			c-15.164-5.559-22.551-1.9-42.769-13.442c-25.15-14.354-19.895-23.562-45.044-37.917c-3.477-1.988-9.147,7.045-12.016,7.179
			C12.79,66.27,5.134,59.844,3.224,62.86c-1.53,2.428,7.381,8.539,7.381,12.546C10.605,104.064,0,104.064,0,132.726
			c0,28.658,10.605,28.658,10.605,57.322C10.605,218.683,0,218.683,0,247.328c0,4.008,10.654,4.442,12.192,6.876
			c1.908,3.014,0.116,12.853,3.684,13.008c2.869,0.129,3.754-10.636,7.236-12.624c25.166-14.364,30.427-5.152,55.592-19.517
			c17.098-9.756,20.164-17.145,28.26-25.367c-3.325,12.069-1.647,19.925-11.861,37.82c-14.364,25.166-23.573,19.904-37.938,45.07
			c-1.988,3.479,7.045,9.15,7.18,12.019c0.158,3.562-6.268,11.221-3.252,13.127c2.429,1.532,8.539-7.379,12.542-7.379
			c28.638,0,28.638,10.604,57.28,10.604c28.661,0,28.661-10.604,57.319-10.604c28.661,0,28.661,10.604,57.322,10.604
			c4.008,0,4.442-10.651,6.876-12.194c3.014-1.905,12.853-0.119,13.008-3.682c0.129-2.869-10.636-3.754-12.625-7.234
			c-14.354-25.145-5.142-30.405-19.495-55.556c-10.982-19.258-18.968-20.738-28.537-31.623c15.162,5.557,22.551,1.896,42.771,13.442
			c25.146,14.354,19.895,23.561,45.039,37.915c3.48,1.988,9.15-7.043,12.019-7.178c3.562-0.16,11.222,6.266,13.127,3.252
			c1.532-2.434-7.379-8.544-7.379-12.552c0-28.655,10.604-28.655,10.604-57.316c0-28.658-10.604-28.658-10.604-57.319
			c0-28.638,10.604-28.638,10.604-57.28C320.961,69.633,310.305,69.188,308.771,66.764z M171.323,184.341
			c-0.652,0.321-1.346,0.555-2.04,0.809c-0.067,0.03-0.135,0.051-0.207,0.072c-0.611,0.217-1.201,0.497-1.849,0.652
			c-0.859,0.207-1.74,0.217-2.615,0.315c-0.673,0.073-1.341,0.238-2.009,0.243c-0.036,0-0.072,0.016-0.111,0.016
			c-1.325,0-2.612-0.16-3.871-0.414c-3.907-0.781-7.413-2.708-10.149-5.473c-1.727-1.74-3.164-3.791-4.161-6.121
			c-0.425-0.989-0.779-2.02-1.046-3.106c-0.414-1.688-0.52-3.366-0.486-5.038c0.005-0.265,0.031-0.514,0.046-0.771
			c0.132-2.3,0.626-4.511,1.507-6.584c1.175-2.773,2.98-5.233,5.264-7.226c1.248-1.087,2.599-2.059,4.122-2.817
			c1.282-0.637,2.641-1.173,4.088-1.528c1.522-0.37,3.081-0.551,4.624-0.562c0.036,0,0.073-0.016,0.111-0.016
			c0.117,0,0.229,0.026,0.345,0.031c6.211,0.111,11.783,3.106,15.366,7.837c0.776,1.03,1.471,2.12,2.04,3.304
			c0.518,1.077,0.963,2.201,1.289,3.389c0.052,0.192,0.141,0.36,0.187,0.557c0.389,1.601,0.513,3.221,0.503,4.826
			c-0.011,2.703-0.591,5.354-1.699,7.85c-0.119,0.27-0.248,0.539-0.383,0.803c-0.248,0.503-0.435,1.031-0.725,1.513
			c-0.249,0.398-0.57,0.735-0.839,1.118C176.719,180.722,174.249,182.896,171.323,184.341z M154.932,53.034
			c1.761-9.331,11.99-5.364,10.229,3.99c-2.175,11.537,3.895,25.38,5.613,36.506c1.223,7.878,0.487,16.109-0.062,24.032
			c-0.415,5.957-1.388,11.283-2.874,16.293c-0.274,0.917-0.616,1.807-0.927,2.711c-1.435-0.213-2.888-0.373-4.365-0.373
			c-1.608,0-3.236,0.181-4.868,0.445c-0.797,0.127-1.592,0.238-2.387,0.435c-0.334,0.086-0.652,0.202-0.981,0.293
			c0.011-0.023,0.021-0.049,0.037-0.07c0.536-1.022,1.056-2.061,1.522-3.158c5.944-13.893,6.485-33.226,2.545-48.059
			C155.323,74.451,152.62,65.299,154.932,53.034z M81.98,169.475c-11.623,3.086-20.775,5.794-33.039,3.485
			c-9.331-1.761-5.365-11.99,3.987-10.229c11.54,2.172,25.383-3.896,36.508-5.613c7.879-1.222,16.109-0.489,24.029,0.062
			c7.128,0.495,13.336,1.841,19.175,3.86c-0.572,3.044-0.689,6.208-0.282,9.404c0.129,0.983,0.308,1.968,0.53,2.951
			c-0.82-0.425-1.654-0.839-2.529-1.222C116.44,166.099,96.93,165.503,81.98,169.475z M170.112,280.198
			c-1.761,9.331-11.988,5.365-10.228-3.987c2.173-11.536-3.899-25.383-5.615-36.505c-1.22-7.882-0.489-16.109,0.062-24.027
			c0.489-7.062,1.81-13.214,3.798-19.004c1.437,0.218,2.889,0.373,4.367,0.373c2.396,0,4.829-0.289,7.252-0.88
			c0.337-0.083,0.652-0.202,0.984-0.29c-7.382,13.986-8.363,35.263-4.102,51.284C169.718,258.792,172.421,267.942,170.112,280.198z
			 M276.108,174.213c-12.262,2.31-21.417-0.399-33.037-3.485c-16.021-4.251-37.282-3.272-51.263,4.096
			c1.118-4.008,1.444-8.284,0.808-12.611c5.778-1.978,11.925-3.298,18.967-3.78c7.918-0.549,16.146-1.279,24.032-0.065
			c11.122,1.716,24.969,7.788,36.506,5.616C281.473,162.223,285.438,172.452,276.108,174.213z"/>
	</g>
</g>
<g>
</g>
<g>
</g>
<g>
</g>
<g>
</g>
<g>
</g>
<g>
</g>
<g>
</g>
<g>
</g>
<g>
</g>
<g>
</g>
<g>
</g>
<g>
</g>
<g>
</g>
<g>
</g>
<g>
</g>
</svg>
