<svg id="flower-with-four-petals" xmlns="http://www.w3.org/2000/svg" width="320.964" height="320.965" viewBox="0 0 320.964 320.965">
  <g id="Group_72" data-name="Group 72">
    <path id="Path_50" data-name="Path 50" d="M308.771,66.764c-1.9-3.019-.114-12.855-3.682-13.013-2.868-.127-3.754,10.641-7.233,12.625C272.69,80.74,267.43,71.53,242.264,85.895c-17.1,9.756-20.163,17.143-28.262,25.37,3.324-12.072,1.646-19.925,11.857-37.821,14.364-25.166,23.576-19.91,37.94-45.076,1.988-3.479-7.048-9.147-7.183-12.016-.155-3.562,6.271-11.219,3.252-13.129-2.423-1.533-8.533,7.381-12.541,7.381C218.693,10.6,218.693,0,190.048,0S161.39,10.6,132.731,10.6,104.07,0,75.412,0C71.4,0,70.964,10.654,68.536,12.192c-3.019,1.908-12.854.122-13.013,3.684-.127,2.869,10.641,3.754,12.625,7.231,14.354,25.15,5.145,30.406,19.5,55.559,10.985,19.255,18.965,20.738,28.537,31.625-15.164-5.559-22.551-1.9-42.769-13.442-25.15-14.354-19.9-23.562-45.044-37.917-3.477-1.988-9.147,7.045-12.016,7.179-3.564.159-11.22-6.267-13.13-3.251C1.694,65.288,10.6,71.4,10.6,75.406c0,28.658-10.6,28.658-10.6,57.32s10.6,28.658,10.6,57.322c0,28.635-10.6,28.635-10.6,57.28,0,4.008,10.654,4.442,12.192,6.876,1.908,3.014.116,12.853,3.684,13.008,2.869.129,3.754-10.636,7.236-12.624,25.166-14.364,30.427-5.152,55.592-19.517,17.1-9.756,20.164-17.145,28.26-25.367-3.325,12.069-1.647,19.925-11.861,37.82-14.364,25.166-23.573,19.9-37.938,45.07-1.988,3.479,7.045,9.15,7.18,12.019.158,3.562-6.268,11.221-3.252,13.127,2.429,1.532,8.539-7.379,12.542-7.379,28.638,0,28.638,10.6,57.28,10.6,28.661,0,28.661-10.6,57.319-10.6s28.661,10.6,57.322,10.6c4.008,0,4.442-10.651,6.876-12.194,3.014-1.9,12.853-.119,13.008-3.682.129-2.869-10.636-3.754-12.625-7.234-14.354-25.145-5.142-30.4-19.495-55.556-10.982-19.258-18.968-20.738-28.537-31.623,15.162,5.557,22.551,1.9,42.771,13.442,25.146,14.354,19.9,23.561,45.039,37.915,3.48,1.988,9.15-7.043,12.019-7.178,3.562-.16,11.222,6.266,13.127,3.252,1.532-2.434-7.379-8.544-7.379-12.552,0-28.655,10.6-28.655,10.6-57.316s-10.6-28.658-10.6-57.319c0-28.638,10.6-28.638,10.6-57.28C320.961,69.633,310.3,69.188,308.771,66.764ZM171.323,184.341a20.661,20.661,0,0,1-2.04.809,1.582,1.582,0,0,1-.207.072,18.117,18.117,0,0,1-1.849.652,21.019,21.019,0,0,1-2.615.315c-.673.073-1.341.238-2.009.243-.036,0-.072.016-.111.016a19.995,19.995,0,0,1-18.181-12.008,19.847,19.847,0,0,1-1.046-3.106,19.3,19.3,0,0,1-.486-5.038c.005-.265.031-.514.046-.771a19.622,19.622,0,0,1,1.507-6.584,19.907,19.907,0,0,1,5.264-7.226,19.547,19.547,0,0,1,4.122-2.817,19.781,19.781,0,0,1,4.088-1.528,20.218,20.218,0,0,1,4.624-.562c.036,0,.073-.016.111-.016.117,0,.229.026.345.031a19.9,19.9,0,0,1,17.406,11.141,20.058,20.058,0,0,1,1.289,3.389c.052.192.141.36.187.557a19.828,19.828,0,0,1,.5,4.826,19.478,19.478,0,0,1-1.7,7.85c-.119.27-.248.539-.383.8-.248.5-.435,1.031-.725,1.513-.249.4-.57.735-.839,1.118A19.52,19.52,0,0,1,171.323,184.341ZM154.932,53.034c1.761-9.331,11.99-5.364,10.229,3.99-2.175,11.537,3.9,25.38,5.613,36.506,1.223,7.878.487,16.109-.062,24.032a74.978,74.978,0,0,1-2.874,16.293c-.274.917-.616,1.807-.927,2.711a29.685,29.685,0,0,0-4.365-.373,30.6,30.6,0,0,0-4.868.445c-.8.127-1.592.238-2.387.435-.334.086-.652.2-.981.293a.392.392,0,0,1,.037-.07c.536-1.022,1.056-2.061,1.522-3.158,5.944-13.893,6.485-33.226,2.545-48.059C155.323,74.451,152.62,65.3,154.932,53.034ZM81.98,169.475c-11.623,3.086-20.775,5.794-33.039,3.485-9.331-1.761-5.365-11.99,3.987-10.229,11.54,2.172,25.383-3.9,36.508-5.613,7.879-1.222,16.109-.489,24.029.062a73.168,73.168,0,0,1,19.175,3.86,30.193,30.193,0,0,0-.282,9.4c.129.983.308,1.968.53,2.951-.82-.425-1.654-.839-2.529-1.222C116.44,166.1,96.93,165.5,81.98,169.475ZM170.112,280.2c-1.761,9.331-11.988,5.365-10.228-3.987,2.173-11.536-3.9-25.383-5.615-36.505-1.22-7.882-.489-16.109.062-24.027a73.043,73.043,0,0,1,3.8-19,29.054,29.054,0,0,0,4.367.373,30.6,30.6,0,0,0,7.252-.88c.337-.083.652-.2.984-.29-7.382,13.986-8.363,35.263-4.1,51.284C169.718,258.792,172.421,267.942,170.112,280.2Zm106-105.985c-12.262,2.31-21.417-.4-33.037-3.485-16.021-4.251-37.282-3.272-51.263,4.1a30.387,30.387,0,0,0,.808-12.611,72.957,72.957,0,0,1,18.967-3.78c7.918-.549,16.146-1.279,24.032-.065,11.122,1.716,24.969,7.788,36.506,5.616C281.473,162.223,285.438,172.452,276.108,174.213Z" fill="#3f3864"/>
  </g>
</svg>
