<svg xmlns="http://www.w3.org/2000/svg" width="300" height="84.444" viewBox="0 0 300 84.444">
  <g id="Group_76" data-name="Group 76" transform="translate(-27 -88)" opacity="0.6">
    <path id="Rectangle_176" data-name="Rectangle 176" d="M0,0H291.5A8.5,8.5,0,0,1,300,8.5v0a8.5,8.5,0,0,1-8.5,8.5H0a0,0,0,0,1,0,0V0A0,0,0,0,1,0,0Z" transform="translate(27 88)" fill="#8493bf"/>
    <path id="Rectangle_177" data-name="Rectangle 177" d="M0,0H292a8,8,0,0,1,8,8V8a8,8,0,0,1-8,8H0a0,0,0,0,1,0,0V0A0,0,0,0,1,0,0Z" transform="translate(27 122.222)" fill="#8493bf"/>
    <path id="Rectangle_178" data-name="Rectangle 178" d="M0,0H207a8,8,0,0,1,8,8V8a8,8,0,0,1-8,8H0a0,0,0,0,1,0,0V0A0,0,0,0,1,0,0Z" transform="translate(27 156.444)" fill="#8493bf"/>
  </g>
</svg>
