<svg xmlns="http://www.w3.org/2000/svg" width="221.633" height="255.005" viewBox="0 0 221.633 255.005">
  <g id="Group_14" data-name="Group 14" transform="translate(-35.908 -595.214)">
    <g id="Component_5" data-name="Component 5" transform="translate(35.908 595.214)">
      <g id="Group_9" data-name="Group 9" transform="translate(0 0)">
        <g id="Group_11" data-name="Group 11" transform="translate(0 0)">
          <g id="Group_10" data-name="Group 10" transform="translate(84.243 227.419)">
            <ellipse id="ellipse29" cx="3.913" cy="3.625" rx="3.913" ry="3.625" transform="translate(0.461 27.586) rotate(-90)" fill="#3f3864"/>
            <ellipse id="ellipse31" cx="8.492" cy="8.344" rx="8.492" ry="8.344" transform="translate(0 17.803) rotate(-90)" fill="#3f3864"/>
            <ellipse id="ellipse29-2" data-name="ellipse29" cx="3.913" cy="3.625" rx="3.913" ry="3.625" transform="matrix(-0.105, -0.995, 0.995, -0.105, 45.837, 27.425)" fill="#3f3864"/>
            <ellipse id="ellipse31-2" data-name="ellipse31" cx="8.492" cy="8.344" rx="8.492" ry="8.344" transform="matrix(-0.105, -0.995, 0.995, -0.105, 35.888, 18.634)" fill="#3f3864"/>
          </g>
          <g id="Group_12" data-name="Group 12">
            <path id="Path_20" data-name="Path 20" d="M-1232.505,2674.746c4.539-2.628,8.385-23.413,24.531-22.5,3.8-3.576,9.33-11.221,12.094-10.558,5.7.493,2.8,5.411,10.136,6.781,5.962.961,13.705-2.136,17.948,3.777s-6.133,5.232-5.117,15.574c1.334,7.407,7.041,3.311,13.012,9.61,6.943,7.076-20.095,25.255-19.2,46.309.762,7.465,14.754.541,15.672,5.879.759,5.735-13.75,20.484-6.617,34.372,3.642,6.927,8.136,22.637,5.992,33.776-2.152,8.837-12.1,1.457-16.116,15.268-1.289,8.488,1.561,8.61,10.124,7.779,4.386-.367-1.437,17.686-16,11.63-12.77-6.013-7.433-22.953-28.424-25.39-11.886,1.412-8.787,5.981-16.977,5.981s-6.109-5.5-15.786-5.981c-14.828.312-21.037,20.658-27,25.514s-21.118-7.6-18.615-10.373c1.889-2.115,13.836-2.324,13.66-7.766-1.129-14.118-14.828-11.218-17.542-19.359-2.164-8.392,7.9-21.51,7.463-32.708-1.952-17.144-12.755-23.289-9.655-28.389,3.279-4.264,16.463,1.969,17.189-6.6.979-23.326-31.789-25.815-24.349-42.339,5.606-9.986,18.652-9.275,18.8-13.96.263-8-10.512-7.8-10.376-14,.446-8.218,13.286-5.526,16.959-5.265,6.9-.99,6-10.259,12.345-9.14s7.882,9,9.985,9.574C-1244.417,2649.009-1236.709,2672.484-1232.505,2674.746Z" transform="translate(1339.987 -2585.093)" fill="#3f3864"/>
            <g id="Group_4" data-name="Group 4" transform="translate(0 126.022)">
              <ellipse id="ellipse19" cx="9.013" cy="8.51" rx="9.013" ry="8.51" transform="translate(12.456)" fill="#3f3864"/>
              <ellipse id="ellipse25" cx="6.052" cy="5.57" rx="6.052" ry="5.57" transform="translate(0 18.723)" fill="#3f3864"/>
              <ellipse id="ellipse27" cx="5.754" cy="5.417" rx="5.754" ry="5.417" transform="translate(24.852 16.396)" fill="#3f3864"/>
              <ellipse id="ellipse31-3" data-name="ellipse31" cx="11.416" cy="11.217" rx="11.416" ry="11.217" transform="translate(16.866 30.48)" fill="#3f3864"/>
            </g>
            <g id="Group_5" data-name="Group 5" transform="translate(181.935 126.022)">
              <ellipse id="ellipse19-2" data-name="ellipse19" cx="9.013" cy="8.51" rx="9.013" ry="8.51" transform="translate(9.217)" fill="#3f3864"/>
              <ellipse id="ellipse25-2" data-name="ellipse25" cx="6.052" cy="5.57" rx="6.052" ry="5.57" transform="translate(27.595 18.723)" fill="#3f3864"/>
              <ellipse id="ellipse27-2" data-name="ellipse27" cx="5.754" cy="5.417" rx="5.754" ry="5.417" transform="translate(3.338 16.396)" fill="#3f3864"/>
              <ellipse id="ellipse31-4" data-name="ellipse31" cx="11.416" cy="11.217" rx="11.416" ry="11.217" transform="translate(0 30.48)" fill="#3f3864"/>
            </g>
            <g id="Group_6" data-name="Group 6" transform="translate(47.737 0) rotate(43)">
              <ellipse id="ellipse17" cx="10.027" cy="10.695" rx="10.027" ry="10.695" transform="translate(9.089 0)" fill="#3f3864"/>
              <ellipse id="ellipse21" cx="5.348" cy="5.214" rx="5.348" ry="5.214" transform="translate(0 31.818)" fill="#3f3864"/>
              <ellipse id="ellipse23" cx="5.615" cy="5.481" rx="5.615" ry="5.481" transform="translate(39.04 17.113)" fill="#3f3864"/>
              <ellipse id="ellipse33" cx="5.481" cy="5.214" rx="5.481" ry="5.214" transform="translate(61.765 9.359)" fill="#3f3864"/>
            </g>
            <g id="Group_7" data-name="Group 7" transform="translate(195.219 30.897) rotate(137)">
              <ellipse id="ellipse17-2" data-name="ellipse17" cx="10.027" cy="10.695" rx="10.027" ry="10.695" transform="translate(9.09 20.856)" fill="#3f3864"/>
              <ellipse id="ellipse21-2" data-name="ellipse21" cx="5.348" cy="5.214" rx="5.348" ry="5.214" transform="translate(0 0)" fill="#3f3864"/>
              <ellipse id="ellipse23-2" data-name="ellipse23" cx="5.615" cy="5.481" rx="5.615" ry="5.481" transform="translate(39.04 14.171)" fill="#3f3864"/>
              <ellipse id="ellipse33-2" data-name="ellipse33" cx="5.481" cy="5.214" rx="5.481" ry="5.214" transform="translate(61.765 22.461)" fill="#3f3864"/>
            </g>
          </g>
        </g>
      </g>
    </g>
  </g>
</svg>
