<svg xmlns="http://www.w3.org/2000/svg" width="228.4" height="276.108" viewBox="0 0 228.4 276.108">
  <g id="Group_54" data-name="Group 54" transform="translate(-37.141 -578.786)">
    <g id="rorschach-icon_17" data-name="rorschach-icon – 17" transform="translate(37.141 578.786)">
      <g id="Group_9" data-name="Group 9" transform="translate(-1.233 16.427)">
        <g id="Group_11" data-name="Group 11" transform="translate(0 0)">
          <g id="Group_10" data-name="Group 10" transform="translate(84.243 227.419)">
            <ellipse id="ellipse29" cx="3.913" cy="3.625" rx="3.913" ry="3.625" transform="translate(-2.539 23.586) rotate(-90)" fill="#3f3864"/>
            <ellipse id="ellipse31" cx="4.992" cy="5.344" rx="4.992" ry="5.344" transform="translate(9 -7.197) rotate(-90)" fill="#3f3864"/>
            <ellipse id="ellipse29-2" data-name="ellipse29" cx="7.913" cy="7.625" rx="7.913" ry="7.625" transform="matrix(-0.105, -0.995, 0.995, -0.105, 42.88, 32.261)" fill="#3f3864"/>
            <ellipse id="ellipse31-2" data-name="ellipse31" cx="5.492" cy="5.344" rx="5.492" ry="5.344" transform="matrix(-0.105, -0.995, 0.995, -0.105, 35.261, 1.667)" fill="#3f3864"/>
          </g>
          <g id="Group_12" data-name="Group 12">
            <path id="Path_20" data-name="Path 20" d="M-1232.485,2617.174c32.135-.9,8.365,34.159,24.511,35.072,3.8-3.576,9.33-11.221,12.094-10.558,5.7.493,2.8,5.411,10.136,6.781,5.962.961,13.705-2.136,17.948,3.777s9.782.548,10.8,10.89c1.334,7.407,4.429,19.291,10.4,25.59-3.049,53.322-36.815-7.244-32.5,35.013.762,7.465,14.754.541,15.672,5.879.759,5.735,13.175,8.24,9.662,26.231-21.979,22.991-8.144,30.779-10.287,41.917-2.152,8.837-12.1,1.457-16.116,15.268-1.289,8.488,1.561,8.61,10.124,7.779,4.386-.367-1.437,17.686-16,11.63-12.77-6.013-32.657-26.209-20.642-42.46-15.805-8.86-17.613-23.079-25.8-23.079s-2.35,26.92-20.407,28.166c3.654,30.26-15.372,32.643-21.331,37.5s-21.118-7.6-18.615-10.373c1.889-2.115,13.836-2.324,13.66-7.766-1.129-14.118-14.828-11.218-17.542-19.359-2.164-8.392,4.235-27.571-14.291-37.317-1.952-17.144,9-18.68,12.1-23.781,3.279-4.264,16.463,1.969,17.189-6.6,4.368-51.553-38.363-1.476-39.5-38.646,5.606-9.986,15-16.221,15.148-20.906.263-8,8.292-4.543,8.427-10.743.446-8.218,13.286-5.526,16.959-5.265,6.9-.99,6-10.259,12.345-9.14s7.882,9,9.985,9.574C-1244.417,2649.009-1264.61,2616.524-1232.485,2617.174Z" transform="translate(1339.987 -2585.093)" fill="#3f3864"/>
            <g id="Group_4" data-name="Group 4" transform="translate(0 126.022)">
              <ellipse id="ellipse19" cx="9.013" cy="8.51" rx="9.013" ry="8.51" transform="translate(12.456 -7)" fill="#3f3864"/>
              <ellipse id="ellipse25" cx="5.052" cy="4.57" rx="5.052" ry="4.57" transform="translate(2 18.723)" fill="#3f3864"/>
              <ellipse id="ellipse27" cx="5.754" cy="5.417" rx="5.754" ry="5.417" transform="translate(30.852 15.396)" fill="#3f3864"/>
              <ellipse id="ellipse31-3" data-name="ellipse31" cx="11.416" cy="11.217" rx="11.416" ry="11.217" transform="translate(11.866 43.48)" fill="#3f3864"/>
            </g>
            <g id="Group_5" data-name="Group 5" transform="translate(181.935 126.022)">
              <ellipse id="ellipse19-2" data-name="ellipse19" cx="9.013" cy="8.51" rx="9.013" ry="8.51" transform="translate(10.217 -6)" fill="#3f3864"/>
              <ellipse id="ellipse25-2" data-name="ellipse25" cx="10.552" cy="7.57" rx="10.552" ry="7.57" transform="translate(26.595 16.723)" fill="#3f3864"/>
              <ellipse id="ellipse27-2" data-name="ellipse27" cx="3.754" cy="3.417" rx="3.754" ry="3.417" transform="translate(-0.662 13.396)" fill="#3f3864"/>
              <ellipse id="ellipse31-4" data-name="ellipse31" cx="11.416" cy="11.217" rx="11.416" ry="11.217" transform="translate(5 38.48)" fill="#3f3864"/>
            </g>
            <g id="Group_6" data-name="Group 6" transform="translate(47.737 0) rotate(43)">
              <ellipse id="ellipse17" cx="10.027" cy="22.695" rx="10.027" ry="22.695" transform="translate(9.089 0)" fill="#3f3864"/>
              <ellipse id="ellipse21" cx="11.848" cy="11.214" rx="11.848" ry="11.214" transform="translate(-13 31.818)" fill="#3f3864"/>
              <ellipse id="ellipse23" cx="9.115" cy="8.481" rx="9.115" ry="8.481" transform="translate(39.04 17.113)" fill="#3f3864"/>
              <ellipse id="ellipse33" cx="5.481" cy="5.214" rx="5.481" ry="5.214" transform="translate(44.765 -10.339)" fill="#3f3864"/>
            </g>
            <g id="Group_7" data-name="Group 7" transform="translate(195.219 30.897) rotate(137)">
              <ellipse id="ellipse17-2" data-name="ellipse17" cx="10.027" cy="15.195" rx="10.027" ry="15.195" transform="translate(9.09 11.856)" fill="#3f3864"/>
              <ellipse id="ellipse21-2" data-name="ellipse21" cx="9.348" cy="9.214" rx="9.348" ry="9.214" transform="translate(-8 -8)" fill="#3f3864"/>
              <ellipse id="ellipse23-2" data-name="ellipse23" cx="5.615" cy="5.481" rx="5.615" ry="5.481" transform="translate(39.04 14.171)" fill="#3f3864"/>
              <ellipse id="ellipse33-2" data-name="ellipse33" cx="5.481" cy="5.214" rx="5.481" ry="5.214" transform="translate(53.433 26.997)" fill="#3f3864"/>
            </g>
          </g>
        </g>
      </g>
    </g>
  </g>
</svg>
